<svg width="83" height="32" viewBox="0 0 83 32" fill="none" xmlns="http://www.w3.org/2000/svg">
<path fill-rule="evenodd" clip-rule="evenodd" d="M0.626099 7.34687C0.626099 3.73966 3.54764 0.81543 7.15154 0.81543H14.9253C18.5292 0.81543 21.4508 3.73966 21.4508 7.34687V22.6816C21.4508 25.0535 20.1876 27.1301 18.2978 28.2742L20.401 31.9392H13.833L12.2442 29.213H7.15154C3.54764 29.213 0.626099 26.2888 0.626099 22.6816V7.34687ZM14.0742 8.1988H8.00268V21.8296H14.0742V8.1988Z" fill="black"/>
<path d="M23.5502 0.81543H31.0687L35.1684 19.8129L39.268 0.81543H46.7865L39.1829 29.213H31.1538L23.5502 0.81543Z" fill="black"/>
<path d="M57.3123 0.81543H49.9357V29.213H57.3123V0.81543Z" fill="black"/>
<path d="M69.4269 0.81543H62.0503V29.213H69.4269V18.6705L73.9387 29.213H81.9636L76.2298 15.815L82.0023 0.81543H74.0974L69.4269 12.9513V0.81543Z" fill="black"/>
</svg>
